<?xml version="1.0" encoding="UTF-8"?> <svg xmlns="http://www.w3.org/2000/svg" xmlns:xlink="http://www.w3.org/1999/xlink" id="Layer_1" data-name="Layer 1" viewBox="0 0 1215.4622 260.3919"><defs><style> .cls-1 { fill: url(#linear-gradient); } .cls-2 { fill: #0894e4; } .cls-3 { fill: url(#linear-gradient-2); } .cls-4 { fill: #27ae60; } .cls-5 { fill: #000621; } </style><linearGradient id="linear-gradient" x1="587.2051" y1="116.3375" x2="430.2076" y2="80.3381" gradientTransform="translate(-27.7864 -333.6555) rotate(52.504)" gradientUnits="userSpaceOnUse"><stop offset="0.1617" stop-color="#631a13"></stop><stop offset="0.8096" stop-color="#d74f3c"></stop></linearGradient><linearGradient id="linear-gradient-2" x1="370.9445" y1="189.6737" x2="451.4433" y2="192.6736" gradientTransform="translate(-27.7864 -333.6555) rotate(52.504)" gradientUnits="userSpaceOnUse"><stop offset="0.1617" stop-color="#631a13"></stop><stop offset="0.9814" stop-color="#d74f3c"></stop></linearGradient></defs><title>svg logo</title><g><path class="cls-1" d="M228.0361,163.1542l-41.6028.0714-29.78-38.816a12.725,12.725,0,0,1,10.0843-20.4707l56.5952-.0516a12.7251,12.7251,0,0,1,10.1076,4.9792l12.9834,16.9229C258.1346,141.0535,247.2752,163.1214,228.0361,163.1542Z" transform="translate(-1.5378 -9.0807)"></path><path class="cls-2" d="M200.0784,233.5994c-.046,0-.091,0-.1369,0l-185.6422.1685c-12.1644.0111-17.4085-15.4163-7.7573-22.8209l58.6386-44.9885a12.7259,12.7259,0,0,1,7.7341-2.629l113.5186-.1038,41.6028-.0714c19.2391-.0328,30.0985-22.1007,18.3875-37.3648L250.46,131.05C282.5858,172.9236,252.8162,233.4454,200.0784,233.5994Z" transform="translate(-1.5378 -9.0807)"></path><path class="cls-3" d="M50.583,79.6943l41.6027-.0714,29.78,38.8159A12.725,12.725,0,0,1,111.8816,138.91l-56.5952.0516a12.7248,12.7248,0,0,1-10.1075-4.9792L32.1954,117.0591C20.4845,101.7949,31.3438,79.7271,50.583,79.6943Z" transform="translate(-1.5378 -9.0807)"></path><path class="cls-4" d="M78.5407,9.2491c.0459,0,.0909,0,.1368,0L264.32,9.0807c12.1644-.0111,17.4085,15.4163,7.7573,22.8209L213.4384,76.89a12.7251,12.7251,0,0,1-7.7341,2.6291l-113.5186.1038-41.6027.0714c-19.2392.0328-30.0985,22.1006-18.3876,37.3648l-4.0361-5.2607C-3.9667,69.9249,25.8029,9.4031,78.5407,9.2491Z" transform="translate(-1.5378 -9.0807)"></path><path class="cls-5" d="M342.6157,118.4387v46.9c0,10.23,7.9028,12.1291,22.1743,11.6436a4.94,4.94,0,0,1,5.1177,4.9316v26.352a4.9325,4.9325,0,0,1-4.5231,4.9189c-48.2937,3.9373-62.5145-11.85-62.5145-47.8461v-46.9H286.6077a4.9354,4.9354,0,0,1-4.9354-4.9353V85.2181a4.9354,4.9354,0,0,1,4.9354-4.9353H302.87v-21.5a4.9353,4.9353,0,0,1,3.5171-4.7272l29.8749-8.9626a4.9354,4.9354,0,0,1,6.3536,4.7272V80.2828h22.3567a4.9353,4.9353,0,0,1,4.9353,4.9353v28.2853a4.9353,4.9353,0,0,1-4.9353,4.9353Z" transform="translate(-1.5378 -9.0807)"></path><path class="cls-5" d="M525.7092,85.2181V207.8332a4.9355,4.9355,0,0,1-4.9354,4.9354H490.8987a4.9354,4.9354,0,0,1-4.9353-4.9354v-7.5184c-8.7442,10.069-21.7277,16.1634-39.4807,16.1634-34.7114,0-63.3283-30.4717-63.3283-69.9524s28.6169-69.9526,63.3283-69.9526c17.753,0,30.7365,6.0944,39.4807,16.1633V85.2181a4.9353,4.9353,0,0,1,4.9353-4.9353h29.8751A4.9354,4.9354,0,0,1,525.7092,85.2181Zm-39.7458,61.3077c0-19.8729-13.2486-32.3266-31.5316-32.3266S422.9,126.6529,422.9,146.5258s13.2486,32.3264,31.5316,32.3264S485.9634,166.3985,485.9634,146.5258Z" transform="translate(-1.5378 -9.0807)"></path><path class="cls-5" d="M685.8458,80.2828a4.9353,4.9353,0,0,1,4.9353,4.9353V206.1443c0,44.5153-34.7112,63.3282-69.9523,63.3282-25.597,0-47.3076-8.9161-60.035-27.5979a4.919,4.919,0,0,1,1.638-7.0082L587.78,220.2118a4.9173,4.9173,0,0,1,6.5106,1.4408c5.0894,7.3952,12.8761,12.8437,27.8627,12.8437,18.5481,0,29.9419-9.5391,29.9419-28.352V193.9556c-8.7442,10.8639-21.4628,17.2231-38.6859,17.2231-37.6259,0-65.183-30.7366-65.183-67.3027s27.5571-67.3028,65.183-67.3028c17.2231,0,29.9417,6.3594,38.6859,17.2233V85.2181a4.9353,4.9353,0,0,1,4.9353-4.9353Zm-33.75,63.5932c0-18.283-13.2486-30.7368-32.0616-30.7368s-32.0615,12.4538-32.0615,30.7368,13.2485,30.7367,32.0615,30.7367S652.0955,162.1589,652.0955,143.876Z" transform="translate(-1.5378 -9.0807)"></path><path class="cls-5" d="M787.2256,180.9719c9.3546,0,17.53-3.1433,23.005-7.7385a4.9268,4.9268,0,0,1,5.6245-.4948L839.5094,186.34a4.9427,4.9427,0,0,1,1.2685,7.5167c-12.8916,14.9482-31.1848,22.6217-54.0823,22.6217-45.31,0-73.3971-30.4717-73.3971-69.9524s28.6169-69.9526,70.4826-69.9526c38.6856,0,67.3027,29.9419,67.3027,69.9526a77.02,77.02,0,0,1-1.59,15.8982H755.4291C760.4635,176.2026,772.6521,180.9719,787.2256,180.9719Zm24.3773-48.2247c-4.24-15.3682-16.1631-20.9328-28.0869-20.9328-15.1034,0-25.1722,7.4193-28.882,20.9328Z" transform="translate(-1.5378 -9.0807)"></path><path class="cls-5" d="M971.1141,173.0228c0,30.4718-26.4972,43.4554-55.1143,43.4554-24.6252,0-43.7578-8.6966-54.6331-27.153a4.9191,4.9191,0,0,1,1.8355-6.753l25.5383-14.5371a4.9626,4.9626,0,0,1,6.7873,1.95c3.98,7.12,10.753,10.9867,20.472,10.9867,9.5391,0,14.3084-2.9145,14.3084-8.214,0-14.5734-65.1829-6.8892-65.1829-52.7293,0-28.882,24.3774-43.4554,51.9345-43.4554,19.61,0,37.23,7.9635,48.6138,23.6883a4.9278,4.9278,0,0,1-1.6754,7.214l-25.12,13.5414a4.915,4.915,0,0,1-6.3079-1.41c-3.5536-4.8945-8.39-8.0572-15.51-8.0572-6.8894,0-11.1289,2.65-11.1289,7.4192C905.9309,134.072,971.1141,124.0031,971.1141,173.0228Z" transform="translate(-1.5378 -9.0807)"></path><path class="cls-5" d="M1056.9619,180.9719c9.3548,0,17.5306-3.1433,23.005-7.7385a4.9267,4.9267,0,0,1,5.6245-.4947l23.6541,13.6011a4.9427,4.9427,0,0,1,1.2685,7.5167c-12.8914,14.9482-31.1846,22.6217-54.0819,22.6217-45.31,0-73.3971-30.4717-73.3971-69.9524s28.6167-69.9526,70.4824-69.9526c38.6858,0,67.3025,29.9419,67.3025,69.9526a77.02,77.02,0,0,1-1.59,15.8982h-94.0648C1030.2,176.2026,1042.3886,180.9719,1056.9619,180.9719Zm24.3773-48.2247c-4.2394-15.3682-16.1633-20.9328-28.0869-20.9328-15.1034,0-25.1722,7.4193-28.8818,20.9328Z" transform="translate(-1.5378 -9.0807)"></path><path class="cls-5" d="M1189.708,118.4387v46.9c0,10.23,7.9029,12.1291,22.1743,11.6436A4.94,4.94,0,0,1,1217,181.9139v26.352a4.9325,4.9325,0,0,1-4.5231,4.9189c-48.2937,3.9373-62.5147-11.85-62.5147-47.8461v-46.9H1133.7a4.9354,4.9354,0,0,1-4.9354-4.9353V85.2181a4.9354,4.9354,0,0,1,4.9354-4.9353h16.2622v-21.5a4.9353,4.9353,0,0,1,3.5171-4.7272l29.8752-8.9626a4.9354,4.9354,0,0,1,6.3535,4.7272V80.2828h22.3567A4.9353,4.9353,0,0,1,1217,85.2181v28.2853a4.9353,4.9353,0,0,1-4.9353,4.9353Z" transform="translate(-1.5378 -9.0807)"></path></g></svg> 